<svg xmlns="http://www.w3.org/2000/svg" xmlns:xlink="http://www.w3.org/1999/xlink" width="175" height="58" viewBox="0 0 175 58">
    <defs>
        <path id="a" d="M0 .686h54.648v49.288H0z"/>
    </defs>
    <g fill="none" fill-rule="evenodd">
        <g fill="#78A22F">
            <path d="M76.526 28.767c-1.587.7-3.572 1.049-5.957 1.048-6.944 0-10.416-3.418-10.415-10.251 0-6.466 3.532-9.7 10.596-9.7a16.286 16.286 0 0 1 5.776.963v3.304a13.709 13.709 0 0 0-5.504-1.097c-4.725 0-7.088 2.178-7.088 6.534 0 4.726 2.229 7.089 6.686 7.089a9.03 9.03 0 0 0 2.257-.332v-5.716h3.644l.005 8.158zM79.622 29.675V15.23h2.822l.457 1.842c1.267-1.23 2.605-1.844 4.015-1.842v2.945c-1.355 0-2.57.564-3.645 1.692v9.807h-3.65zM95.067 15.23c4.383 0 6.574 2.239 6.576 6.714 0 .599-.042 1.198-.126 1.79h-9.583c0 2.036 1.495 3.053 4.485 3.053a23.72 23.72 0 0 0 4.376-.411v2.892c-1.532.299-3.09.438-4.65.414-5.237 0-7.856-2.463-7.857-7.388 0-4.706 2.26-7.06 6.784-7.06m-3.138 5.97h6.158v-.113c0-2-1.008-3-3.025-2.997-1.929 0-2.974 1.036-3.138 3.11M110.492 15.23c4.384 0 6.576 2.239 6.576 6.714 0 .599-.042 1.198-.126 1.79h-9.598c0 2.036 1.494 3.053 4.483 3.053a23.715 23.715 0 0 0 4.377-.411v2.892a22.477 22.477 0 0 1-4.65.414c-5.237 0-7.856-2.463-7.858-7.388 0-4.706 2.262-7.06 6.784-7.06m-3.136 5.97h6.173v-.113c0-2-1.008-3-3.025-2.997-1.929 0-2.974 1.036-3.137 3.11M119.794 29.675V15.23h2.82l.459 2.117c1.385-1.413 2.963-2.12 4.733-2.117 3.42 0 5.13 1.778 5.13 5.337v9.107h-3.65v-9.096c0-1.596-.792-2.393-2.38-2.392-1.183 0-2.34.472-3.465 1.416v10.083l-3.647-.011z"/>
        </g>
        <path fill="#004963" d="M149.885 10.004v3.162h-5.64v16.508H140.6V13.165h-5.641v-3.161zM154.72 15.23c4.385 0 6.577 2.239 6.577 6.714 0 .599-.042 1.197-.123 1.79h-9.59c0 2.036 1.494 3.053 4.484 3.053a23.731 23.731 0 0 0 4.377-.411v2.892a22.487 22.487 0 0 1-4.652.414c-5.236-.003-7.854-2.467-7.854-7.392 0-4.706 2.26-7.06 6.784-7.06m-3.14 5.974h6.163v-.113c0-2-1.008-3-3.025-2.997-1.927 0-2.973 1.036-3.137 3.11M175 29.268a16.539 16.539 0 0 1-3.716.41c-5.136 0-7.703-2.497-7.703-7.493 0-4.633 2.567-6.95 7.703-6.95 1.25-.004 2.497.135 3.716.414v2.872a15.292 15.292 0 0 0-3.43-.411c-2.887 0-4.332 1.353-4.333 4.06 0 3.072 1.445 4.608 4.333 4.608a15.351 15.351 0 0 0 3.43-.412v2.902z"/>
        <g transform="translate(0 -.686)">
            <mask id="b" fill="#fff">
                <use xlink:href="#a"/>
            </mask>
            <path fill="#696A6C" d="M54.648 20.778a1.389 1.389 0 0 0-.064-.23 27.593 27.593 0 0 0-1.766-4.437 13.137 13.137 0 0 0-.773-1.4c-1.629.156-3.29.284-4.924.442a24.71 24.71 0 0 0-2.095-2.602c-.073-.076-.34-.31-.32-.38.42-1.58.743-3.26 1.143-4.884a1.29 1.29 0 0 0-.277-.244 27.1 27.1 0 0 0-5.016-3.284c-1.304 1.002-2.595 2.017-3.899 3.014a22.963 22.963 0 0 0-4.019-1.244c-.54-1.56-1.098-3.103-1.647-4.658-.77-.098-1.6-.146-2.424-.185h-1.41c-.83.034-1.633.094-2.415.174-.574 1.543-1.115 3.116-1.667 4.68a22.822 22.822 0 0 0-4.01 1.22c-1.3-.954-2.603-2.011-3.908-3.001A26.762 26.762 0 0 0 9.86 7.287c.39 1.633.774 3.268 1.155 4.905-.088.13-.192.248-.31.35-.756.829-1.462 1.7-2.116 2.61-1.624-.157-3.28-.283-4.907-.44-.156.214-.29.444-.4.686a28.405 28.405 0 0 0-2.088 4.952 1.991 1.991 0 0 0-.123.412c0 .05.125.176.208.247a47.946 47.946 0 0 1 1.664 1.6c.521.526 1.107 1.045 1.665 1.6.078.076.2.179.206.23a2.319 2.319 0 0 1-.05.37 25.14 25.14 0 0 0-.268 2.723c-1.498.785-2.99 1.576-4.495 2.355v.218a28.88 28.88 0 0 0 1.143 6.61c1.747.36 3.517.7 5.26 1.06.337.758.71 1.482 1.101 2.19-.86 1.514-1.72 3.03-2.582 4.544a30.088 30.088 0 0 0 2.745 3.362c.084.092 2.178 2.103 2.178 2.103.431-1.087.986-2.12 1.654-3.08.891-1.257 1.664-2.361 2.743-3.43a19.949 19.949 0 0 1 2.147-1.744 17.28 17.28 0 0 1-5.016-7.271 17.775 17.775 0 0 1-1.038-5.108A17.552 17.552 0 0 1 23.217 11.52a18.209 18.209 0 0 1 5.488-.606c8.13.4 14.92 6.332 16.408 14.334.33 1.879.367 3.797.112 5.686a17.216 17.216 0 0 1-.823 3.325 24.744 24.744 0 0 0 7.11-4.817 24.23 24.23 0 0 0 1.101-1.166c-.343-.184-.686-.362-1.043-.552-.094-.048-.332-.13-.359-.203a2.142 2.142 0 0 1-.02-.4 20.04 20.04 0 0 0-.295-2.655c-.012-.06.16-.197.228-.258.57-.524 1.111-1.077 1.644-1.601.533-.523 1.105-1.052 1.647-1.6.068-.071.214-.174.228-.23" mask="url(#b)"/>
        </g>
        <path fill="#004963" d="M16.884 30.589c3.2-1.331 6.05-3.062 8.712-4.945a54.36 54.36 0 0 0 7.349-6.302c-.858-.608-1.752-1.212-2.623-1.829-.048-.037-.12-.065-.144-.126 2.474-.348 4.957-.686 7.394-1.048.078 0 .092-.024.06.051a3.776 3.776 0 0 1-.348.608 21.894 21.894 0 0 1-3.404 4.267 28.746 28.746 0 0 1-4.893 3.887 46.313 46.313 0 0 1-12.103 5.44M39.557 35.343c.016-5.984.016-12.02 0-17.997-1.036 2.058-2.54 3.793-4.164 5.284-.107.098-.304.247-.32.34a5.544 5.544 0 0 0 0 .874V36.26l.211-.032c.253-.034.507-.057.763-.098.293-.044.59-.097.885-.151.107-.021.212-.032.32-.053l.06-.016a23.72 23.72 0 0 0 1.18-.265c.352-.09.686-.193 1.022-.288l.043-.014M33.962 36.427V23.874a41.053 41.053 0 0 1-4.214 2.93c-.094.059-.263.15-.28.196a2.892 2.892 0 0 0 0 .617v9.374h.138c1.372-.16 2.847-.34 4.356-.56M28.353 27.64h.021v9.375a24.313 24.313 0 0 0-4.484.646c-.023-2.548 0-5.142 0-7.71 1.518-.743 3.034-1.486 4.472-2.311M22.747 30.445h.02v7.511a23.161 23.161 0 0 0-4.495 1.882v-7.582a74.989 74.989 0 0 0 4.475-1.81M64.359 54.555h-2.972v-4.022h2.933v.482h-2.382v1.235h2.206v.483h-2.206v1.346h2.43l-.01.476zm1.6-2.937h.458v.416h.01c.043-.056.084-.11.127-.162a.939.939 0 0 1 .428-.283.97.97 0 0 1 .334-.053c.107-.002.215.014.317.046a.71.71 0 0 1 .37.268c.038.05.07.102.099.157.117-.14.254-.264.407-.363a.92.92 0 0 1 .49-.112c.099 0 .197.014.292.04a.852.852 0 0 1 .295.152.8.8 0 0 1 .229.307c.065.153.097.319.09.486v2.033h-.492v-1.897a.871.871 0 0 0-.124-.501.478.478 0 0 0-.421-.18.61.61 0 0 0-.493.24.836.836 0 0 0-.197.548v1.79h-.496v-2.033a.688.688 0 0 0-.106-.384.398.398 0 0 0-.354-.16.75.75 0 0 0-.503.199.849.849 0 0 0-.197.304c-.054.152-.08.312-.075.474v1.6h-.494l.007-2.932zm6.124 2.086a.769.769 0 0 0 .727.519.661.661 0 0 0 .59-.311c.146-.25.215-.535.2-.823a2.743 2.743 0 0 0-.021-.363 1.166 1.166 0 0 0-.101-.346.665.665 0 0 0-.244-.281.766.766 0 0 0-.435-.11.684.684 0 0 0-.412.119.716.716 0 0 0-.242.308 1.6 1.6 0 0 0-.108.397c-.02.139-.03.28-.03.423-.002.155.024.31.076.457v.01zm-.546-2.074h.457v.416h.032c.04-.06.084-.114.126-.164.05-.056.107-.108.169-.153a.807.807 0 0 1 .247-.128c.107-.032.218-.048.329-.046a1.08 1.08 0 0 1 .897.41c.226.304.34.676.324 1.053 0 .192-.021.385-.064.572a1.718 1.718 0 0 1-.213.528 1.132 1.132 0 0 1-1.012.538.956.956 0 0 1-.474-.113.82.82 0 0 1-.306-.28h-.023v1.469h-.494l.005-4.102zm4.017.902c.054-.181.139-.35.252-.5a1.18 1.18 0 0 1 .429-.354 1.458 1.458 0 0 1 1.196 0c.168.082.314.202.428.35.113.15.199.32.254.5.114.374.114.77 0 1.144-.056.18-.142.348-.254.498a1.163 1.163 0 0 1-.428.353 1.435 1.435 0 0 1-1.196 0 1.165 1.165 0 0 1-.43-.353 1.57 1.57 0 0 1-.251-.498 1.953 1.953 0 0 1 0-1.143v.003zm.45.912c.026.127.07.249.13.363a.764.764 0 0 0 .262.286c.26.15.58.15.84 0a.79.79 0 0 0 .266-.286c.063-.113.107-.236.13-.363a1.772 1.772 0 0 0 0-.718c-.02-.127-.06-.25-.118-.364a.845.845 0 0 0-.265-.286.849.849 0 0 0-.842 0 .8.8 0 0 0-.265.286 1.356 1.356 0 0 0-.131.366 1.611 1.611 0 0 0 0 .718l-.006-.002zm4.667 1.11h-.51l-.848-2.936h.54l.56 2.308h.01l.568-2.308h.549l.572 2.308h.01l.596-2.308h.512l-.853 2.937h-.52l-.593-2.273h-.012l-.581 2.273zm6.357-.914a.982.982 0 0 1-.13.359 1.173 1.173 0 0 1-.393.444c-.1.06-.204.11-.314.146a1.65 1.65 0 0 1-.485.055 1.198 1.198 0 0 1-.958-.41 1.569 1.569 0 0 1-.354-1.058 2.243 2.243 0 0 1 .085-.642c.05-.19.139-.366.26-.52.118-.15.269-.27.444-.348.195-.086.406-.128.619-.123.372-.02.728.153.942.457.233.377.345.816.32 1.258h-2.142a1.06 1.06 0 0 0 .215.716.794.794 0 0 0 .638.249.836.836 0 0 0 .549-.208.588.588 0 0 0 .208-.37l.496-.005zm-.471-.78a1.543 1.543 0 0 0-.06-.338.915.915 0 0 0-.14-.277.65.65 0 0 0-.246-.19.926.926 0 0 0-.375-.07.768.768 0 0 0-.576.265.891.891 0 0 0-.174.284.884.884 0 0 0-.062.327h1.633zm2.602 1.702h-.494v-2.937h.457v.49h.012c.089-.164.21-.31.359-.423a.751.751 0 0 1 .457-.15.473.473 0 0 1 .13.017v.51h-.184a.686.686 0 0 0-.545.229.789.789 0 0 0-.208.558l.016 1.706zm2.346 0h.494v-2.937h-.494v2.937zm0-3.468h.494v-.561h-.494v.56zm4.573 3.468h-.494v-1.807a.978.978 0 0 0-.14-.585.576.576 0 0 0-.49-.185.75.75 0 0 0-.503.199.792.792 0 0 0-.193.304 1.313 1.313 0 0 0-.078.473v1.6h-.491v-2.936h.457v.416h.01c.04-.054.082-.107.127-.157.054-.058.115-.11.18-.155a.978.978 0 0 1 .58-.186c.125-.001.249.014.369.043a.827.827 0 0 1 .57.479c.064.158.094.328.089.498l.007 1.999zm2.243-.654a.66.66 0 0 0 .59.31.83.83 0 0 0 .27-.048.752.752 0 0 0 .26-.16.849.849 0 0 0 .197-.31c.054-.15.08-.31.076-.47 0-.142-.01-.283-.03-.425a1.52 1.52 0 0 0-.108-.396.708.708 0 0 0-.242-.305.68.68 0 0 0-.411-.12.762.762 0 0 0-.435.11.66.66 0 0 0-.245.28c-.051.11-.085.227-.1.347-.016.12-.024.242-.023.363-.013.288.056.575.2.824zm1.864.41c0 .158-.011.314-.033.469a1.387 1.387 0 0 1-.155.458.981.981 0 0 1-.414.393 1.6 1.6 0 0 1-.761.156c-.112 0-.224-.01-.334-.03a1.075 1.075 0 0 1-.34-.123.846.846 0 0 1-.291-.27.99.99 0 0 1-.158-.458h.494a.584.584 0 0 0 .117.26c.05.062.115.11.187.14a.849.849 0 0 0 .357.065.959.959 0 0 0 .458-.098.598.598 0 0 0 .25-.252.916.916 0 0 0 .099-.316c.015-.121.022-.243.02-.365v-.124a.822.822 0 0 1-.311.302.95.95 0 0 1-.48.112 1.17 1.17 0 0 1-.606-.148 1.126 1.126 0 0 1-.4-.39 1.73 1.73 0 0 1-.217-.527 2.452 2.452 0 0 1-.066-.573 1.622 1.622 0 0 1 .327-1.051c.215-.272.547-.425.894-.412a1.02 1.02 0 0 1 .338.05c.09.03.174.074.249.13.06.048.116.1.165.159.04.05.087.11.135.176v-.433h.457l.019 2.7zm4.273.244h.544v-4.03h-.544v4.03zm4.747 0h-.494v-1.807a.962.962 0 0 0-.14-.585.574.574 0 0 0-.49-.185.758.758 0 0 0-.501.199.809.809 0 0 0-.195.304 1.31 1.31 0 0 0-.075.473v1.6h-.494v-2.936h.457v.416c.04-.054.083-.107.128-.157a.94.94 0 0 1 .178-.155.975.975 0 0 1 .58-.186c.125-.001.248.014.369.043a.82.82 0 0 1 .57.479c.063.158.094.328.089.498l.018 1.999zm3.416-2.937h.54l-1.116 2.937h-.528l-1.073-2.937h.575l.76 2.392h.033l.809-2.392zm4.24 2.015a.978.978 0 0 1-.127.359 1.256 1.256 0 0 1-.167.244 1.012 1.012 0 0 1-.228.2c-.098.06-.202.11-.311.146a1.65 1.65 0 0 1-.485.055 1.2 1.2 0 0 1-.96-.41 1.564 1.564 0 0 1-.354-1.058 2.32 2.32 0 0 1 .085-.642c.052-.19.14-.365.26-.52a1.2 1.2 0 0 1 .444-.348 1.46 1.46 0 0 1 .619-.123c.372-.02.728.153.942.457.234.376.346.816.32 1.258h-2.142c-.017.257.06.512.217.716a.788.788 0 0 0 .635.249.786.786 0 0 0 .549-.208.58.58 0 0 0 .208-.37l.496-.005zm-.47-.78a1.386 1.386 0 0 0-.06-.338.872.872 0 0 0-.14-.277.642.642 0 0 0-.246-.19.909.909 0 0 0-.372-.07.778.778 0 0 0-.58.265.891.891 0 0 0-.173.284.883.883 0 0 0-.061.327h1.633zm3.71-.398a1.103 1.103 0 0 0-.028-.17.379.379 0 0 0-.093-.152.488.488 0 0 0-.213-.123 1.138 1.138 0 0 0-.362-.048 1.07 1.07 0 0 0-.17.014.643.643 0 0 0-.19.058.446.446 0 0 0-.16.129.345.345 0 0 0-.065.215.263.263 0 0 0 .11.239c.134.072.277.122.425.152l.492.123c.234.043.454.143.639.293a.638.638 0 0 1 .186.482.864.864 0 0 1-.324.707c-.24.183-.536.277-.837.263a1.837 1.837 0 0 1-.666-.101.846.846 0 0 1-.38-.26.873.873 0 0 1-.17-.323 1.718 1.718 0 0 1-.047-.342h.479a.983.983 0 0 0 .036.209c.02.07.056.132.105.186.066.069.149.12.24.148.128.042.263.062.398.057a.896.896 0 0 0 .48-.118.382.382 0 0 0 .192-.348.28.28 0 0 0-.125-.252 1.64 1.64 0 0 0-.458-.17l-.571-.138a1.072 1.072 0 0 1-.503-.25.614.614 0 0 1-.176-.456.888.888 0 0 1 .089-.412.844.844 0 0 1 .247-.3c.225-.16.498-.24.774-.23.204-.007.408.032.595.114a.858.858 0 0 1 .489.569.928.928 0 0 1 .037.228l-.475.007zm2.686-.428v1.91c0 .1.03.165.087.19a.506.506 0 0 0 .21.039h.174v.389l-.23.02-.145.018a.553.553 0 0 1-.457-.166.727.727 0 0 1-.131-.458v-1.937h-.397v-.41h.397v-.822h.492v.818h.47v.409h-.47zm1.889-.41h.457v.417c.04-.056.082-.11.126-.162a.96.96 0 0 1 .428-.283.966.966 0 0 1 .334-.053c.107-.002.214.014.317.046a.71.71 0 0 1 .37.268c.037.05.069.102.099.157.116-.141.254-.264.407-.363a.924.924 0 0 1 .489-.113c.099 0 .198.015.293.04a.805.805 0 0 1 .524.458c.065.155.096.32.09.488v2.033h-.493v-1.898a.854.854 0 0 0-.124-.5.477.477 0 0 0-.421-.18.61.61 0 0 0-.493.24.834.834 0 0 0-.197.548v1.79h-.493v-2.033a.662.662 0 0 0-.108-.384.394.394 0 0 0-.352-.16.783.783 0 0 0-.503.199.793.793 0 0 0-.196.304c-.055.152-.08.312-.077.473v1.6h-.493l.016-2.931zm8.108 2.016a.966.966 0 0 1-.131.359c-.044.088-.1.17-.165.244a1.118 1.118 0 0 1-.228.2c-.098.06-.203.11-.313.146a1.664 1.664 0 0 1-.471.06 1.197 1.197 0 0 1-.958-.41 1.576 1.576 0 0 1-.355-1.06 2.32 2.32 0 0 1 .085-.641c.05-.19.14-.366.26-.52a1.16 1.16 0 0 1 .444-.347c.196-.086.407-.128.62-.123.37-.02.728.153.942.457.233.377.345.816.32 1.258h-2.142a1.06 1.06 0 0 0 .214.716.797.797 0 0 0 .638.249.76.76 0 0 0 .305-.058.796.796 0 0 0 .244-.15.581.581 0 0 0 .208-.371l.483-.01zm-.471-.78a1.488 1.488 0 0 0-.06-.338.872.872 0 0 0-.14-.277.646.646 0 0 0-.246-.19.93.93 0 0 0-.375-.07.765.765 0 0 0-.313.07.857.857 0 0 0-.437.479.884.884 0 0 0-.062.327h1.633zm4.43 1.702h-.466v-1.807a.969.969 0 0 0-.14-.585.575.575 0 0 0-.488-.185.744.744 0 0 0-.698.503 1.332 1.332 0 0 0-.075.473v1.6h-.494v-2.936h.457v.416a1.115 1.115 0 0 1 .307-.312.985.985 0 0 1 .58-.186c.125-.001.249.014.369.043a.94.94 0 0 1 .327.16.844.844 0 0 1 .242.319c.064.158.094.328.089.498l-.01 1.999zm2.287-2.528v1.91c0 .1.03.165.087.19a.51.51 0 0 0 .21.039h.175v.389l-.23.02-.145.018a.553.553 0 0 1-.458-.166.72.72 0 0 1-.13-.458v-1.937h-.398v-.41h.398v-.822h.494v.818h.47v.409h-.473zm3.563.428a.99.99 0 0 0-.027-.17.392.392 0 0 0-.094-.152.488.488 0 0 0-.213-.123 1.128 1.128 0 0 0-.361-.048c-.057 0-.114.005-.17.014a.664.664 0 0 0-.19.058.457.457 0 0 0-.16.129.343.343 0 0 0-.063.215.27.27 0 0 0 .107.239c.134.072.277.122.426.152l.494.123c.233.044.452.144.638.293a.637.637 0 0 1 .184.482.861.861 0 0 1-.324.707 1.281 1.281 0 0 1-.837.263 1.78 1.78 0 0 1-.663-.101.866.866 0 0 1-.382-.26.886.886 0 0 1-.17-.323 1.584 1.584 0 0 1-.047-.342h.478c.006.07.018.14.036.209a.49.49 0 0 0 .105.186.57.57 0 0 0 .229.148c.129.042.264.062.398.057a.896.896 0 0 0 .48-.118.382.382 0 0 0 .192-.348.28.28 0 0 0-.126-.252 1.612 1.612 0 0 0-.457-.17l-.571-.138a1.072 1.072 0 0 1-.503-.25.623.623 0 0 1-.177-.456.874.874 0 0 1 .336-.712c.227-.158.499-.24.776-.23.204-.007.407.032.594.114a.888.888 0 0 1 .343.267.968.968 0 0 1 .186.53l-.467.007zm4.594 2.1h.494v-2.937h-.494v2.937zm0-3.468h.494v-.561h-.494v.56zm4.573 3.468h-.494v-1.807a.97.97 0 0 0-.142-.585.574.574 0 0 0-.487-.185.732.732 0 0 0-.25.046.726.726 0 0 0-.45.457 1.29 1.29 0 0 0-.075.473v1.6h-.494v-2.936h.457v.416h.012c.039-.054.08-.107.126-.157.054-.058.114-.11.18-.155a.972.972 0 0 1 .58-.186c.124-.001.247.014.367.043a.941.941 0 0 1 .329.16.787.787 0 0 1 .24.319c.066.157.097.327.092.498l.009 1.999zm4.868-1.173l-.421 1.173h-.56l1.516-4.03h.608l1.459 4.03h-.594l-.4-1.173h-1.608zm1.422-.483l-.595-1.774-.644 1.774h1.239zm3.18-.872v2.528h-.487v-2.528h-.402v-.41h.402v-.502a.597.597 0 0 1 .198-.487.88.88 0 0 1 .566-.16l.208.012h.017v.444c-.083 0-.15-.012-.202-.012a.272.272 0 0 0-.228.082.403.403 0 0 0-.07.26v.364h.495v.409h-.496zm2.452 2.528h-.494v-2.937h.458v.49c.088-.164.21-.31.358-.423a.755.755 0 0 1 .457-.15.43.43 0 0 1 .129.017v.51h-.186a.698.698 0 0 0-.544.229.804.804 0 0 0-.208.558l.03 1.706zm2.346 0h.494v-2.937h-.494v2.937zm-.001-3.468h.494v-.561h-.494v.56zm4.01 1.52a.748.748 0 0 0-.227-.457.656.656 0 0 0-.476-.165.701.701 0 0 0-.63.347c-.064.11-.111.23-.136.355a1.951 1.951 0 0 0-.042.404c0 .137.01.272.033.407.022.125.063.246.12.36a.662.662 0 0 0 .248.262.74.74 0 0 0 .4.098.63.63 0 0 0 .457-.183.922.922 0 0 0 .252-.511h.478a1.654 1.654 0 0 1-.094.385 1.173 1.173 0 0 1-.21.36c-.1.116-.223.21-.361.272a1.258 1.258 0 0 1-.531.103 1.198 1.198 0 0 1-.958-.41 1.546 1.546 0 0 1-.354-1.058 2.25 2.25 0 0 1 .084-.643c.05-.19.14-.365.26-.52a1.16 1.16 0 0 1 .444-.347c.195-.086.407-.128.62-.123.164-.004.328.027.48.089a.96.96 0 0 1 .337.245c.086.102.153.218.199.343.045.127.073.259.084.393l-.476-.006zm1.897-.097a.914.914 0 0 1 .332-.743c.26-.167.569-.247.88-.23.1.003.202.012.3.029.123.02.242.057.354.11a.782.782 0 0 1 .309.249.692.692 0 0 1 .125.43v1.687c0 .117.055.174.165.174.054-.003.109-.01.162-.021v.36l-.062.015a.737.737 0 0 1-.208.04.526.526 0 0 1-.402-.122.568.568 0 0 1-.12-.327 1.736 1.736 0 0 1-.434.34 1.267 1.267 0 0 1-.626.136.942.942 0 0 1-.663-.23.786.786 0 0 1-.256-.61c0-.085.01-.171.027-.256a.828.828 0 0 1 .13-.271.84.84 0 0 1 .275-.25c.144-.08.304-.13.469-.144l.814-.1a.3.3 0 0 0 .187-.081.395.395 0 0 0 .069-.267c0-.318-.23-.476-.686-.476a.848.848 0 0 0-.327.053.546.546 0 0 0-.2.137.619.619 0 0 0-.1.174 1.15 1.15 0 0 0-.047.2l-.467-.006zm1.806.545a.628.628 0 0 1-.228.09 6.675 6.675 0 0 1-.586.094 2.253 2.253 0 0 0-.217.044.826.826 0 0 0-.2.076.417.417 0 0 0-.152.139.38.38 0 0 0-.06.229.517.517 0 0 0 .133.38c.11.094.255.14.4.129a1.097 1.097 0 0 0 .629-.198.731.731 0 0 0 .203-.23.51.51 0 0 0 .076-.271l.002-.482z"/>
        <path fill="#78A22F" d="M30.333 39.072c-4.573.272-8.631 1.563-11.32 3.155-3.549 2.104-5.81 4.505-7.843 8.283 3.352-2.1 7.088-3.705 11.327-4.98a38.072 38.072 0 0 1 6.819-1.45 30.926 30.926 0 0 1 7.897.111 35.33 35.33 0 0 0-8.277.842c-7.545 1.653-13.676 4.71-19.207 8.5-.096.67.058 1.192.425 1.458a.966.966 0 0 0 .773.14c.238-.075.468-.17.686-.288.784-.389 1.539-.89 2.287-1.299a27.763 27.763 0 0 0 12.754 3.73c.295.015.593.024.892.03h.382c.398 0 .798 0 1.202-.022 5.767-.254 10.269-1.623 14.037-4.016a28.371 28.371 0 0 0 5.111-4.179 24.933 24.933 0 0 0 2.154-2.515c2.014-2.698 3.308-5.749 4.328-9.498.269-.979.483-1.97.643-2.973.192-1.124.316-2.258.372-3.395a26.229 26.229 0 0 1-1.669 1.563 24.905 24.905 0 0 1-7.891 4.478c-1.43.552-2.91.965-4.42 1.234-.342.073-.685.154-1.031.23-.397.072-.793.133-1.186.19h-.06c-.107.013-.215.017-.32.03-.297.037-.594.07-.889.094-.254.026-.508.032-.764.051-2.554.254-5.076.358-7.207.484"/>
        <path fill="#004963" d="M61.368 39.134c0 .853.215 1.523.645 2.013a2.237 2.237 0 0 0 1.772.73 2.114 2.114 0 0 0 1.493-.54c.395-.371.651-.867.725-1.405h-1.095c-.049.22-.143.43-.275.613a1.025 1.025 0 0 1-.864.379 1.12 1.12 0 0 1-.915-.44c-.24-.296-.36-.74-.359-1.331-.028-.482.09-.96.34-1.373a1.2 1.2 0 0 1 1.803-.141c.13.17.222.365.27.574h1.104a1.913 1.913 0 0 0-.36-.986c-.408-.583-1.05-.875-1.929-.873a2.176 2.176 0 0 0-1.623.65c-.489.5-.734 1.21-.734 2.133l.002-.003zm10.365-1.475l.665 2.077h-1.35l.685-2.077zm-2.497 4.073h1.143l.36-1.086h1.943l.35 1.086h1.196l-1.868-5.28h-1.249l-1.875 5.28zm11.298-3.602a.78.78 0 0 1-.208.604.852.852 0 0 1-.588.19h-.995v-1.555h.995a.89.89 0 0 1 .588.174c.153.154.23.37.208.587zm1.095 0c0-.57-.156-.992-.457-1.265a1.835 1.835 0 0 0-1.25-.406h-2.267v5.279h1.095V39.84h1.1c.474.03.942-.107 1.324-.39.305-.255.458-.696.458-1.321h-.003zm3.497 3.595h1.095v-5.28h-1.095v5.28zm4.401-5.28v.935h1.587v4.345h1.108V37.38h1.581v-.934h-4.276zm9.217 1.208l.668 2.076h-1.355l.687-2.076zm-2.497 4.072h1.16l.356-1.086h1.944l.35 1.086h1.195l-1.868-5.28h-1.246l-1.89 5.28zm8.387 0h3.748v-.95h-2.637V36.46h-1.105l-.006 5.266zm14.586-3.602a.78.78 0 0 1-.21.604.847.847 0 0 1-.588.19h-.994v-1.554h.994a.886.886 0 0 1 .588.173c.154.155.231.37.21.587zm1.111 0c0-.57-.155-.992-.457-1.264a1.832 1.832 0 0 0-1.25-.407h-2.285v5.28h1.095v-1.898h1.1c.474.03.942-.107 1.323-.388.306-.257.458-.698.458-1.323h.016zm5.182-.457l.665 2.076h-1.352l.687-2.076zm-2.498 4.072h1.144l.358-1.085h1.945l.35 1.085h1.195l-1.868-5.28h-1.249l-1.875 5.28zm10.692-4.353c.175-.011.35.02.511.092a.665.665 0 0 1 .303.644.59.59 0 0 1-.313.595c-.168.067-.35.097-.53.087h-1.19v-1.418h1.22zm.226-.933h-2.514v5.28h1.076V39.66h1.077a.894.894 0 0 1 .63.169.99.99 0 0 1 .175.675v.489c.003.154.018.307.046.457.013.072.04.167.073.284h1.217v-.12a.455.455 0 0 1-.204-.3 2.683 2.683 0 0 1-.03-.491v-.351a1.76 1.76 0 0 0-.15-.828 1 1 0 0 0-.52-.416c.27-.082.496-.267.63-.515.121-.226.186-.48.19-.738a1.51 1.51 0 0 0-.099-.556 1.612 1.612 0 0 0-.266-.443 1.299 1.299 0 0 0-.494-.37 2.318 2.318 0 0 0-.834-.136l-.003-.018zm5.031 0v.935h1.587v4.345h1.111v-4.345h1.58v-.935h-4.278zm7.62 5.28h1.028V37.99l2.15 3.748h1.101v-5.28h-1.026v3.682l-2.097-3.681h-1.157v5.273zm11.934-5.28h-3.873v5.28h4.001v-.95h-2.922v-1.357h2.564v-.915h-2.564v-1.12h2.794v-.938zm6.023.914c.176-.01.351.02.513.092.215.139.334.39.301.645a.59.59 0 0 1-.313.594c-.168.069-.35.098-.53.087h-1.187v-1.418h1.216zm.231-.917h-2.515v5.28h1.08v-2.072h1.065a.899.899 0 0 1 .628.17.993.993 0 0 1 .174.674v.489c.002.155.018.307.05.458.012.07.035.167.07.284h1.218v-.117a.428.428 0 0 1-.203-.301 2.517 2.517 0 0 1-.03-.491v-.351a1.714 1.714 0 0 0-.154-.828.99.99 0 0 0-.516-.416 1.06 1.06 0 0 0 .626-.515 1.6 1.6 0 0 0 .195-.757 1.446 1.446 0 0 0-.099-.555 1.597 1.597 0 0 0-.264-.444 1.317 1.317 0 0 0-.495-.37 2.306 2.306 0 0 0-.832-.135l.002-.003zm5.204 3.66a1.56 1.56 0 0 0 .597 1.294 2.579 2.579 0 0 0 1.64.47c.685 0 1.207-.157 1.58-.477.361-.293.567-.736.56-1.2a1.3 1.3 0 0 0-.47-1.081 2.387 2.387 0 0 0-.916-.383l-.926-.217a3.332 3.332 0 0 1-.702-.23.459.459 0 0 1-.256-.422.543.543 0 0 1 .261-.478c.207-.124.445-.185.686-.174.226-.007.45.039.655.133a.76.76 0 0 1 .428.686h1.06c.01-.503-.223-.98-.625-1.283a2.359 2.359 0 0 0-1.443-.444c-.675 0-1.186.157-1.532.472a1.504 1.504 0 0 0-.523 1.177c-.035.449.17.882.535 1.143.36.2.751.337 1.157.405l.571.126c.256.043.504.127.734.246a.46.46 0 0 1 .23.406.616.616 0 0 1-.474.612 2.03 2.03 0 0 1-.648.085c-.443 0-.757-.108-.939-.324a1.082 1.082 0 0 1-.202-.542h-1.038z"/>
        <path stroke="#004963" stroke-width="1.79" d="M61.217 46.465h113.275"/>
    </g>
</svg>
